<svg width="515" height="429" viewBox="0 0 515 429" fill="none" xmlns="http://www.w3.org/2000/svg">
<path d="M214.754 34.1572C230.947 51.025 281.663 88.134 304.996 104.58L266.5 133C249.5 144.833 207.1 167.7 173.5 164.5C170.5 181.667 158.9 222.7 136.5 249.5C148.167 244.333 182.4 236.3 226 245.5C230 227.667 248 185.4 288 159L330 130.5L513.673 5.54153C514.503 4.9767 515 4.03762 515 3.03346C515 1.35813 513.642 0 511.967 0H294.032C178.377 -1.54328e-05 131.99 18.0132 112.282 27.8318C18.1602 74.7242 -1.7156 173.597 0.111744 217.172C2.7216 365.934 135.149 418.63 207.564 427.663C212.344 428.259 217.172 428.223 221.951 427.616C297.81 417.978 357.281 379.214 374.998 355.91C451.915 270.559 427.85 163.758 406.203 121.026L374.998 142.111C375.672 282.788 268.45 369.123 214.754 394.705C77.7878 327.234 51.1367 198.196 54.932 142.111C105.198 119.171 182.424 60.5834 214.754 34.1572Z" fill="#FFA750"/>
</svg>
